<?xml version="1.0" encoding="UTF-8"?>
<svg id="blueberry_icon" xmlns="http://www.w3.org/2000/svg" viewBox="0 0 192.24 209.01">
  <g id="blueberry">
    <circle id="blueberry_main" cx="96.12" cy="112.89" r="96.12" style="fill: #76b3d0;"/>
    <path id="blueberry_top" d="M95.07,14.24S113.08.09,127.22.74s8.36,22.95,8.36,22.95c0,0,26.36,3.41,26.36,15.63s-26.36,16.35-26.36,16.35c0,0,18,18.37,8.36,24.15s-34.72-3.86-34.72-3.86c0,0-6.43,20.57-20.57,16.72s-21.22-24.51-21.22-24.51c0,0-25.04,4.37-35.33-9.05s27-31.98,27-31.98c0,0-12.89-21.94-1.32-26.42s37.29,13.52,37.29,13.52Z" style="fill: #0b1e6e;"/>
    <ellipse id="blueberry_hole" cx="96.12" cy="43.37" rx="19.29" ry="12.54" style="fill: #76b3d0;"/>
  </g>
</svg>