<?xml version="1.0" encoding="UTF-8"?>
<svg id="grape_icon" xmlns="http://www.w3.org/2000/svg" viewBox="0 0 170.1 243.22">
  <g id="grape">
    <path id="grape_leaf" d="M84.43,66.78c0,6.51,6.36,11.97,11.26,1.93,6.43-13.19,5.47-49.54,36.68-48.58,13.52.42,11.26,18.34,3.22,17.7-3.53-.28-11.87-9.4-14.16,0s19.63,17.37,28.12,8.14c9.69-10.53,9.52-40-13-42.25-30.47-3.05-43.11,26.38-43.76,29.92S83.39-3.04,58.78.18c-12.28,1.61-10.38,15.12-3.3,16.09,7.66,1.05,28.96,14.35,28.96,50.51Z" style="fill: #d1d161;"/>
    <path id="grape_main" d="M153.93,111.94c9.67-5.69,16.17-16.2,16.17-28.24,0-18.09-14.66-32.75-32.75-32.75-11.34,0-21.33,5.76-27.2,14.51-5.38-3.88-11.98-6.16-19.12-6.16-4.18,0-8.17.79-11.84,2.22-3.7-14.04-16.47-24.39-31.67-24.39-18.09,0-32.75,14.66-32.75,32.75,0,5.81,1.52,11.26,4.17,16C7.75,91.08,0,102.41,0,115.56c0,15.8,11.19,28.99,26.08,32.07-4.47,5.6-7.15,12.69-7.15,20.41,0,16.55,12.28,30.23,28.23,32.43-1.01,3.15-1.56,6.51-1.56,9.99,0,18.09,14.66,32.75,32.75,32.75s32.75-14.66,32.75-32.75c0-.16,0-.32-.01-.49,15.42-2.66,27.15-16.09,27.15-32.26,0-2.47-.28-4.88-.8-7.19,16.49-1.7,29.34-15.64,29.34-32.57,0-10.6-5.04-20.02-12.85-26ZM47.93,103.04c-2.97-20.93,12.16-23.52,12.16-23.52,18.25-3.15,12.34,9,4.48,9.12-8.01.13-7.03,10.7-7.29,14.4-.52,7.53-8.46,6.35-9.36,0ZM72.23,173.14c-20.56-4.92-17.41-19.95-17.41-19.95,3.77-18.13,12.9-8.17,10.13-.82-2.82,7.5,7.37,10.47,10.71,12.07,6.81,3.25,2.8,10.2-3.44,8.7ZM120.08,133.72c-16.12,9.11-14.64-4.32-7.29-7.08,7.5-2.82,3.02-12.45,2.02-16.01-2.04-7.26,5.82-8.83,8.81-3.15,9.84,18.71-3.54,26.24-3.54,26.24Z" style="fill: #0b1e6e;"/>
  </g>
</svg>