<?xml version="1.0" encoding="UTF-8"?>
<svg id="lemon_icon" xmlns="http://www.w3.org/2000/svg" viewBox="0 0 184.94 238.91">
  <g id="lemon">
    <path id="lemon_leaves" d="M172.07,14.04c-10.1-26.89-33.35-11.93-43.18,17.66-6.24-8.48-15.02-14.86-27.38-16.05-38.21-3.65-19.61,46.61,25.34,65.29.19.81.4,1.62.62,2.43,0,0,.88-.43,2.39-1.25,4.54,1.7,9.33,3.08,14.34,4.05,0,0,0-5.07-.88-12.49,16.5-11.75,38.64-33.3,28.75-59.65Z" style="fill: #d1d161;"/>
    <path id="lemon_main" d="M177.73,91.56c.58-12.19,17.12-18.66-1.95-34.41-21.43-17.69-22.6-5.98-31.28-3.69-17.09,4.51-56.69-15.98-105.57,22.46C-9.94,114.36,13.41,175.59,3.95,198.57c-5.18,12.6-7.38,22.01,6.96,34.8,14.34,12.8,24.76-.41,37.72-1.72s57.12,15.56,102.32-26.07c42.63-39.26,25.46-86.14,26.78-114.04ZM80.63,94.34c-9.47,12.53-39.66,22.66-34.54,3.58,6.14-22.89,42.34-25.02,42.34-25.02,0,0,1.67,8.91-7.8,21.44ZM105.86,211.28c-3.18,0-5.75-2.58-5.75-5.75s2.58-5.75,5.75-5.75,5.75,2.58,5.75,5.75-2.58,5.75-5.75,5.75ZM118.41,175.45c-3.18,0-5.75-2.58-5.75-5.75s2.58-5.75,5.75-5.75,5.75,2.58,5.75,5.75-2.58,5.75-5.75,5.75ZM151.45,169.7c-3.18,0-5.75-2.58-5.75-5.75s2.58-5.75,5.75-5.75,5.75,2.58,5.75,5.75-2.58,5.75-5.75,5.75Z" style="fill: #fdb52a;"/>
  </g>
</svg>