<?xml version="1.0" encoding="UTF-8"?>
<svg id="Layer_2" data-name="Layer 2" xmlns="http://www.w3.org/2000/svg" viewBox="0 0 184.94 238.92">
  <g id="Layer_1-2" data-name="Layer 1">
    <path d="M144.21,86.18s.12-66.43-42.7-70.53c-42.81-4.09-14.31,59.52,42.7,70.53Z" style="fill: #d1d161;"/>
    <path d="M127.47,83.38s59.73-29.07,44.6-69.33c-15.13-40.26-59.75,13.29-44.6,69.33Z" style="fill: #d1d161;"/>
    <path d="M177.73,91.56c.58-12.19,17.12-18.66-1.95-34.41-21.43-17.69-22.6-5.98-31.28-3.69-17.09,4.51-56.69-15.98-105.57,22.46C-9.94,114.36,13.41,175.59,3.95,198.58c-5.18,12.6-7.38,22.01,6.96,34.8,14.34,12.8,24.76-.41,37.72-1.72s57.12,15.56,102.32-26.07c42.63-39.26,25.46-86.14,26.78-114.04ZM80.63,94.34c-9.47,12.53-39.66,22.66-34.54,3.58,6.14-22.89,42.34-25.02,42.34-25.02,0,0,1.67,8.91-7.8,21.44ZM105.86,211.28c-3.18,0-5.75-2.58-5.75-5.75s2.58-5.75,5.75-5.75,5.75,2.58,5.75,5.75-2.58,5.75-5.75,5.75ZM118.41,175.45c-3.18,0-5.75-2.58-5.75-5.75s2.58-5.75,5.75-5.75,5.75,2.58,5.75,5.75-2.58,5.75-5.75,5.75ZM151.45,169.7c-3.18,0-5.75-2.58-5.75-5.75s2.58-5.75,5.75-5.75,5.75,2.58,5.75,5.75-2.58,5.75-5.75,5.75Z" style="fill: #fdb52a;"/>
  </g>
</svg>