<?xml version="1.0" encoding="UTF-8"?>
<svg id="Layer_2" data-name="Layer 2" xmlns="http://www.w3.org/2000/svg" viewBox="0 0 214.55 162.97">
  <g id="Layer_1-2" data-name="Layer 1">
    <path d="M14.27,79.34l-14.27,5.88s38.84,110.98,145.06,67.77S204.12,0,204.12,0l-13.45,6.43s26.53,93.45-53.93,129.12S14.27,79.34,14.27,79.34Z" style="fill: #d1d161;"/>
    <path d="M14.27,79.34s37.3,91.81,126.06,59.08C225.69,106.94,190.67,6.43,190.67,6.43L14.27,79.34Z" style="fill: #febaed;"/>
    <path d="M118.7,88.17s-3.98,23.49,7.96,27.48c10.1,3.37,18.42-4.77,14.18-15.06-4.24-10.29-22.14-12.42-22.14-12.42Z" style="fill: #0b1e6e;"/>
    <path d="M149.94,50.38s13.56,19.58,24.9,14.09c9.58-4.65,9.84-16.29-.38-20.68-10.22-4.39-24.52,6.59-24.52,6.59Z" style="fill: #0b1e6e;"/>
    <path d="M79.5,78.81s-23.08,5.9-21.87,18.44c1.02,10.6,11.84,14.9,19.52,6.84,7.68-8.05,2.36-25.28,2.36-25.28Z" style="fill: #0b1e6e;"/>
  </g>
</svg>