<?xml version="1.0" encoding="UTF-8"?>
<svg id="Layer_2" data-name="Layer 2" xmlns="http://www.w3.org/2000/svg" viewBox="0 0 186.39 218.51">
  <g id="Layer_1-2" data-name="Layer 1">
    <path d="M186.39,131.69c0-52.48-39.24-86.82-91.72-86.82S0,79.21,0,131.69s42.19,86.82,94.67,86.82,91.72-34.34,91.72-86.82Z" style="fill: #ff6c1f;"/>
    <path d="M90.04,48.18c-6.55-1.51-1.67-15.59-18.66-26.73-7.29-4.78,2.51-15.04,10.58-10.03s19.77,20.05,20.05,29.52S107.33.35,166.34,0c16.99-.1-20.24,38.89-37.91,47.67-11.66,5.8-30.98,2.21-38.39.5Z" style="fill: #d1d161;"/>
    <path d="M71.94,64.05s-27.01-3.62-34.25,14.76,16.99,19.21,26.46,6.68,7.8-21.44,7.8-21.44Z" style="fill: #fdb52a;"/>
    <circle cx="87.44" cy="191.41" r="5.75" style="fill: #fdb52a;"/>
    <circle cx="156.04" cy="159.84" r="5.75" style="fill: #fdb52a;"/>
    <circle cx="114.27" cy="149.82" r="5.75" style="fill: #fdb52a;"/>
  </g>
</svg>