<?xml version="1.0" encoding="UTF-8"?>
<svg id="orange_icon" xmlns="http://www.w3.org/2000/svg" viewBox="0 0 186.39 218.51">
  <g id="orange">
    <path id="orange_main" d="M94.67,44.87C42.19,44.87,0,79.21,0,131.69s42.19,86.82,94.67,86.82,91.72-34.34,91.72-86.82-39.24-86.82-91.72-86.82ZM64.14,85.49c-9.47,12.53-33.7,11.7-26.46-6.68,7.24-18.38,34.25-14.76,34.25-14.76,0,0,1.67,8.91-7.8,21.44ZM87.44,197.16c-3.18,0-5.75-2.58-5.75-5.75s2.58-5.75,5.75-5.75,5.75,2.58,5.75,5.75-2.58,5.75-5.75,5.75ZM114.27,155.57c-3.18,0-5.75-2.58-5.75-5.75s2.58-5.75,5.75-5.75,5.75,2.58,5.75,5.75-2.58,5.75-5.75,5.75ZM156.04,165.6c-3.18,0-5.75-2.58-5.75-5.75s2.58-5.75,5.75-5.75,5.75,2.58,5.75,5.75-2.58,5.75-5.75,5.75Z" style="fill: #ff6c1f;"/>
    <path id="orange_leaf" d="M90.04,48.18c-6.55-1.51-1.67-15.59-18.66-26.73-7.29-4.78,2.51-15.04,10.58-10.03s19.77,20.05,20.05,29.52S107.33.35,166.34,0c16.99-.1-20.24,38.89-37.91,47.67-11.66,5.8-30.98,2.21-38.39.5Z" style="fill: #d1d161;"/>
  </g>
</svg>