<?xml version="1.0" encoding="UTF-8"?>
<svg id="Layer_2" data-name="Layer 2" xmlns="http://www.w3.org/2000/svg" viewBox="0 0 330.35 104.78">
  <g id="Flat_Colour" data-name="Flat Colour">
    <path d="M173.33,37.48c-9.18-1.21,8.54,2.19,12.59-11.58,2.15-7.31,2.17-19.97-11-24.89-6.41-2.39-22.72,2.66-30.14,1.08s-15.05-2.38-16.59,1c-1.75,3.85,1.82,6.9,7.22,10.94l.14,45.9s-7.43,6.91-6.52,11.19c.78,3.66,10.57,2.47,16.64,0,6.07-2.47,14.95,8.2,32.38-.9,14.22-7.43,8.43-31.01-4.73-32.75ZM149.52,62.76v-17.45c13.85-1.28,21.1,0,21.09,9.31,0,11.26-21.09,8.14-21.09,8.14ZM149.52,31.3V13.85c13.85-1.28,21.1,0,21.09,9.31,0,11.26-21.09,8.14-21.09,8.14Z" style="fill: #0b1e6e;"/>
    <path d="M134.97,85.36s-4.57-.47-6.46-1.99c-6.01-4.81.21-16.05-6.44-30.12-2.47-5.23-3.9-6.9-9-7.8s12.9-3.3,13.5-18.91c.6-15.6-7.01-21.67-13.08-24.28-5.87-2.52-18.97-2.47-25.33-.9-7.09,1.75-5.8,1.64-11.2.03-4.33-1.29-7.4-1.76-9.39.95-1.99,2.7,4.39,12.8,4.39,12.8v44.81s.85-.88-4.91,8.41c-5.02,8.1,5.95,4.55,11.67,3.74,3.86-.54,6.77,2.59,11.56,1.99,5.47-.69.79-7.19-.01-8.12-.88-1.02-2.3-3.07-2.3-3.07,0,0-.35-9.99.31-11.86.6-1.69,10.41-2.38,13.31-.41,4.33,2.95,5.11,1.3,9.09,40.14,1.66,16.18,28.49,18.03,31.49,7.23,3-10.8-7.18-12.63-7.18-12.63ZM106.64,37.16c-2.35,4.37-18.49,2.28-18.49,2.28v-19.51c6.65-6.96,14.9-3.48,17.17-.63,3.56,4.48,3.41,13.97,1.32,17.86Z" style="fill: #0b1e6e;"/>
    <path d="M192.64,31.75c-1.14,6.9,1.64,20.11-.34,28.55-.59,2.51-6.75,10.47-5,12.02,1.92,1.71,27.43,1.83,29.08-.34,1.28-1.69-5.09-9.97-5.4-12.02-.94-6.15,1.21-21.39.07-28.21-.42-2.52-3.44-4.47-9.21-4.47s-8.79,1.94-9.21,4.47Z" style="fill: #0b1e6e;"/>
    <circle cx="201.84" cy="10.63" r="10.34" style="fill: #0b1e6e;"/>
    <path d="M235.84,17.58v42.36s-6.66,7-5.26,10.04c1.94,4.21,22.63,5.48,25.47,0,1.62-3.14-4.85-10.08-4.85-10.08V17.37s10.33-6.79,17.09,7.81c5.68,12.27,9.27-10.48,37.53-6.08,12.1,1.88-30.78,31.31-33.56,50.23-1.45,9.88,50.38,2.92,56.15-1.1,3.46-2.41,2.61-22.2-4.83-18.64-6.24,2.99-5.69,5.32-8.55,7.24-5.3,3.54-20.18,2.85-20.18,2.85,0,0,22.91-28.86,27.2-34.21,5.7-7.13,4.19-14.5-3.07-16.67-4.63-1.38-43.43-.22-43.43-.22,0,0,2.85-8.55-2.85-8.55h-50.23s-4.82-.66-6.27,6.59c-.96,4.79,1.83,20.62,9.25,14.32s10.4-3.35,10.4-3.35Z" style="fill: #0b1e6e;"/>
    <path d="M35.5.24C19.46.24,3.44,16.68,3.44,36.95c0,3.6.51,7.08,1.44,10.37-2.99,2.78-4.87,6.73-4.87,11.13,0,8.4,6.81,15.2,15.2,15.2,3.26,0,6.27-1.03,8.75-2.78,3.69,1.79,7.62,2.78,11.55,2.78,16.04,0,32.06-16.43,32.06-36.7S51.53.24,35.5.24ZM15.2,65.79c-4.05,0-7.34-3.29-7.34-7.34,0-.94.18-1.83.5-2.66,1.07-2.74,3.72-4.68,6.84-4.68,4.05,0,7.34,3.29,7.34,7.34,0,3.69-2.72,6.73-6.26,7.25-.35.05-.71.09-1.08.09ZM35.5,59.95c-1.79,0-3.5-.48-5.1-1.35,0-.05,0-.1,0-.15,0-6.25-3.78-11.62-9.18-13.96-.54-2.36-.84-4.9-.84-7.54,0-12.7,6.76-23,15.1-23s15.1,10.3,15.1,23-6.76,23-15.1,23Z" style="fill: #0b1e6e;"/>
  </g>
</svg>