<?xml version="1.0" encoding="UTF-8"?>
<svg id="Layer_2" data-name="Layer 2" xmlns="http://www.w3.org/2000/svg" viewBox="0 0 173.49 219.2">
  <g id="Layer_1-2" data-name="Layer 1">
    <path d="M67.93,54.69c-.65-.35-20.88-9.95-33.5-.91-24.69,17.69-3.73,20.42-12.28,26.03-43.11,28.32-10.01,50.07-10.01,50.07-16.36,46.15,13.45,33,13.87,40.83,2.38,44.59,19.24,26.46,23.88,33.89,14.32,22.99,38.36,17.24,54.69-6.16,6.97-9.99,31.21,8.3,35.43-28.5,1.45-12.63,33.26,7.68,19.26-57-.84-3.89,7.12-12.29,5.49-20.36-2.2-10.89-12.46-26.75-29.37-25.86-34.21,1.8-30.94,7.53-67.46-12.02ZM44.82,107.62c-4.41-7.5-12.1-25.33,17.65-30,8.68-1.36,4.41,6.62,4.41,6.62,0,0-31.33,3.09-11.91,23.39,1.75,1.83-5.74,7.5-10.15,0ZM84.59,177.91c-7.46,4.49-25.21,12.35-30.18-17.36-1.45-8.66,6.58-4.48,6.58-4.48,0,0,2.81,29.48,23.5,11.68,8.03-6.91,7.56,5.66.1,10.15ZM107.07,140.48c-8.13,3.33-5.82-5.42-5.82-5.42,0,0,29.77-10.24,6.19-25.5-2.13-1.38,3.85-8.62,9.87-2.34,6.03,6.28,17.62,21.85-10.24,33.27Z" style="fill: #febaed;"/>
    <path d="M69.19,57.31c-13.54-4.75-39.95-33.04-26.74-50.77s44.16,27.94,44.16,37.85S101.81-2.17,137.08,4.44c24.03,4.51,0,15.02,0,15.02,0,0-27.25,7.99-30.5,31.73-.65,4.77,19.68-17.07,47.92-5.29,44.41,18.53-13.09,23.13-29.74,23.13-37.62,0-40.02-6.26-55.57-11.72Z" style="fill: #d1d161; stroke: #d1d161; stroke-miterlimit: 10; stroke-width: 5px;"/>
  </g>
</svg>